<svg width="82" height="32" viewBox="0 0 82 32" fill="none" xmlns="http://www.w3.org/2000/svg">
<path fill-rule="evenodd" clip-rule="evenodd" d="M13 3.44579C5.8203 3.44579 0 9.26608 0 16.4458V18.1084C0 25.2881 5.82031 31.1084 13 31.1084H13.6747C20.8544 31.1084 26.6747 25.2881 26.6747 18.1084V16.4458C26.6747 12.8957 25.2517 9.67802 22.945 7.33195C22.6775 7.62201 22.5438 8.03745 22.5438 8.57827V21.3583C22.5438 24.4543 21.7398 26.6743 20.1318 28.0183C18.5478 29.3623 16.4838 30.0343 13.9398 30.0343C13.2918 30.0343 12.5358 29.9503 11.6718 29.7823C10.8078 29.6383 10.1598 29.4463 9.72776 29.2063L8.17976 30.0343C7.36376 29.1463 6.67976 28.0783 6.12776 26.8303C5.57576 25.5823 5.29976 23.9743 5.29976 22.0063C5.29976 21.2143 5.35976 20.5183 5.47976 19.9183H10.9518C10.7598 20.7583 10.6638 21.5263 10.6638 22.2223C10.6638 23.6383 10.9278 24.7663 11.4558 25.6063C11.9838 26.4463 12.8118 26.8663 13.9398 26.8663C14.7078 26.8663 15.3558 26.6023 15.8838 26.0743C16.4358 25.5463 16.7118 24.6703 16.7118 23.4463V9.26227C16.7118 8.37427 16.4718 7.73827 15.9918 7.35427C15.5118 6.94627 14.6478 6.74227 13.3998 6.74227C13.3998 6.33427 13.4718 5.92627 13.6158 5.51827C13.7598 5.11027 13.9638 4.76227 14.2278 4.47427H18.7511C17.1915 3.81209 15.4759 3.44579 13.6747 3.44579H13Z" fill="white"/>
<path d="M27.0047 19.2946C27.0047 18.6246 27.2247 18.0946 27.6647 17.7046C28.1047 17.3146 28.7547 17.1196 29.6147 17.1196C29.9147 17.1196 30.2197 17.1496 30.5297 17.2096C30.8497 17.2696 31.1097 17.3496 31.3097 17.4496V15.4546C31.3097 15.0546 31.2097 14.7696 31.0097 14.5996C30.8097 14.4196 30.5397 14.3296 30.1997 14.3296C29.8697 14.3296 29.5997 14.4096 29.3897 14.5696C29.5797 14.6296 29.7197 14.7346 29.8097 14.8846C29.9097 15.0246 29.9597 15.1846 29.9597 15.3646C29.9597 15.6846 29.8447 15.9446 29.6147 16.1446C29.3847 16.3446 29.0947 16.4446 28.7447 16.4446C28.3647 16.4446 28.0597 16.3346 27.8297 16.1146C27.5997 15.8946 27.4847 15.6096 27.4847 15.2596C27.4847 14.9096 27.6047 14.5796 27.8447 14.2696C28.0847 13.9596 28.4497 13.7096 28.9397 13.5196C29.4397 13.3296 30.0547 13.2346 30.7847 13.2346C31.7747 13.2346 32.5247 13.4396 33.0347 13.8496C33.5447 14.2496 33.7997 14.8396 33.7997 15.6196V19.5946C33.7997 20.0746 34.0297 20.3646 34.4897 20.4646V20.9446C34.3597 21.1246 34.1447 21.2646 33.8447 21.3646C33.5447 21.4646 33.2397 21.5146 32.9297 21.5146C32.2497 21.5146 31.7697 21.2796 31.4897 20.8096C31.2597 21.0096 30.9797 21.1796 30.6497 21.3196C30.3197 21.4496 29.9447 21.5146 29.5247 21.5146C28.7747 21.5146 28.1647 21.3096 27.6947 20.8996C27.2347 20.4796 27.0047 19.9446 27.0047 19.2946ZM31.3097 18.6046C31.1997 18.5346 31.0647 18.4746 30.9047 18.4246C30.7547 18.3746 30.6097 18.3496 30.4697 18.3496C30.1897 18.3496 29.9597 18.4396 29.7797 18.6196C29.5997 18.7896 29.5097 19.0396 29.5097 19.3696C29.5097 19.6396 29.5997 19.8646 29.7797 20.0446C29.9597 20.2146 30.1997 20.2996 30.4997 20.2996C30.6497 20.2996 30.7947 20.2796 30.9347 20.2396C31.0847 20.1896 31.2097 20.1296 31.3097 20.0596V18.6046ZM43.5213 21.0346C43.3813 21.2146 43.1713 21.3546 42.8913 21.4546C42.6113 21.5546 42.3113 21.6046 41.9913 21.6046C41.7013 21.6046 41.4163 21.5396 41.1363 21.4096C40.8563 21.2896 40.6613 21.1196 40.5513 20.8996C40.3513 21.1596 40.1013 21.3396 39.8013 21.4396C39.5113 21.5496 39.1463 21.6046 38.7063 21.6046C38.1463 21.6046 37.6313 21.4646 37.1613 21.1846C36.6913 20.8946 36.3113 20.4696 36.0213 19.9096C35.7413 19.3396 35.6013 18.6446 35.6013 17.8246C35.6013 16.8546 35.7813 16.0296 36.1413 15.3496C36.5113 14.6696 36.9963 14.1596 37.5963 13.8196C38.1963 13.4796 38.8563 13.3096 39.5763 13.3096C39.7463 13.3096 40.0513 13.3296 40.4913 13.3696L40.4463 12.4696V11.7196C40.4463 11.4696 40.3763 11.2846 40.2363 11.1646C40.0963 11.0446 39.8313 10.9846 39.4413 10.9846V10.3696C39.7913 10.1796 40.2463 10.0096 40.8063 9.85964C41.3663 9.70964 41.8063 9.63464 42.1263 9.63464C42.3563 9.63464 42.5213 9.68964 42.6213 9.79964C42.7313 9.89964 42.7863 10.0746 42.7863 10.3246V19.7446C42.7863 20.2346 43.0263 20.5246 43.5063 20.6146L43.5213 21.0346ZM39.7413 20.3296C40.0513 20.3296 40.2863 20.2396 40.4463 20.0596V14.8096C40.2363 14.5196 39.9563 14.3746 39.6063 14.3746C39.1663 14.3746 38.8113 14.6046 38.5413 15.0646C38.2813 15.5246 38.1513 16.2696 38.1513 17.2996C38.1513 18.2896 38.2963 19.0446 38.5863 19.5646C38.8863 20.0746 39.2713 20.3296 39.7413 20.3296ZM47.9674 10.8046C47.9674 11.2346 47.8324 11.5796 47.5624 11.8396C47.3024 12.0896 46.9524 12.2146 46.5124 12.2146C46.0824 12.2146 45.7374 12.0896 45.4774 11.8396C45.2274 11.5796 45.1024 11.2346 45.1024 10.8046C45.1024 10.3846 45.2324 10.0446 45.4924 9.78464C45.7624 9.52464 46.1124 9.39464 46.5424 9.39464C46.9724 9.39464 47.3174 9.52464 47.5774 9.78464C47.8374 10.0446 47.9674 10.3846 47.9674 10.8046ZM47.6824 19.7896C47.6824 20.0796 47.7524 20.2896 47.8924 20.4196C48.0424 20.5396 48.2674 20.5996 48.5674 20.5996C48.5674 20.9096 48.4524 21.1796 48.2224 21.4096H44.8324C44.6024 21.1796 44.4874 20.9096 44.4874 20.5996C44.7874 20.5996 45.0024 20.5396 45.1324 20.4196C45.2724 20.2896 45.3424 20.0746 45.3424 19.7746V15.4246C45.3424 15.1446 45.2724 14.9446 45.1324 14.8246C45.0024 14.7046 44.7424 14.6446 44.3524 14.6446V13.9846C44.5924 13.8346 44.9974 13.6796 45.5674 13.5196C46.1474 13.3496 46.6374 13.2646 47.0374 13.2646C47.2674 13.2646 47.4324 13.3196 47.5324 13.4296C47.6324 13.5296 47.6824 13.7046 47.6824 13.9546V19.7896ZM57.5903 21.0346C57.4503 21.2146 57.2403 21.3546 56.9603 21.4546C56.6803 21.5546 56.3803 21.6046 56.0603 21.6046C55.7703 21.6046 55.4853 21.5396 55.2053 21.4096C54.9253 21.2896 54.7303 21.1196 54.6203 20.8996C54.4203 21.1596 54.1703 21.3396 53.8703 21.4396C53.5803 21.5496 53.2153 21.6046 52.7753 21.6046C52.2153 21.6046 51.7003 21.4646 51.2303 21.1846C50.7603 20.8946 50.3803 20.4696 50.0903 19.9096C49.8103 19.3396 49.6703 18.6446 49.6703 17.8246C49.6703 16.8546 49.8503 16.0296 50.2103 15.3496C50.5803 14.6696 51.0653 14.1596 51.6653 13.8196C52.2653 13.4796 52.9253 13.3096 53.6453 13.3096C53.8153 13.3096 54.1203 13.3296 54.5603 13.3696L54.5153 12.4696V11.7196C54.5153 11.4696 54.4453 11.2846 54.3053 11.1646C54.1653 11.0446 53.9003 10.9846 53.5103 10.9846V10.3696C53.8603 10.1796 54.3153 10.0096 54.8753 9.85964C55.4353 9.70964 55.8753 9.63464 56.1953 9.63464C56.4253 9.63464 56.5903 9.68964 56.6903 9.79964C56.8003 9.89964 56.8553 10.0746 56.8553 10.3246V19.7446C56.8553 20.2346 57.0953 20.5246 57.5753 20.6146L57.5903 21.0346ZM53.8103 20.3296C54.1203 20.3296 54.3553 20.2396 54.5153 20.0596V14.8096C54.3053 14.5196 54.0253 14.3746 53.6753 14.3746C53.2353 14.3746 52.8803 14.6046 52.6103 15.0646C52.3503 15.5246 52.2203 16.2696 52.2203 17.2996C52.2203 18.2896 52.3653 19.0446 52.6553 19.5646C52.9553 20.0746 53.3403 20.3296 53.8103 20.3296Z" fill="white"/>
<path d="M69.9272 0.848022L66.4989 3.43079L67.6588 1.78744C66.7583 2.38422 65.679 3.29114 64.3815 4.58525L62.8374 8.2003L63.0391 6.00979C62.3478 6.82758 61.6614 7.81579 61.0501 8.89964L61.3719 11.525L60.5663 9.79812C59.9905 10.9411 59.5016 12.1535 59.174 13.3599C58.8286 14.6244 58.6624 15.8845 58.7766 17.0334L57.4519 16.7355C57.8842 17.5835 58.4703 18.2402 59.2198 18.7619L57.8094 18.86C58.4313 19.6271 59.1172 20.0149 60.0862 20.1707C60.1157 21.5826 60.4027 22.9605 60.6728 24.3405L61.4086 24.1921C59.1818 15.9512 62.9112 8.73203 67.1713 4.53795L67.6782 5.0873C63.8798 8.8666 61.6341 13.656 61.6618 19.3128C62.3435 19.0568 62.9775 18.7208 63.5341 18.3288L62.8511 15.9866L64.1338 17.8691C64.4866 17.5634 64.7941 17.2409 65.0489 16.9043L63.6514 15.5786L65.3798 16.4061C65.5894 16.0526 65.7349 15.6893 65.8104 15.3228C66.2766 13.1147 66.7998 10.8976 68.5903 8.52591L66.6418 8.5773L69.3067 7.64981C69.6526 7.26987 70.0025 6.83283 70.2492 6.45232L68.3241 7.01622L70.8813 5.28783C71.0167 4.98824 71.1328 4.68321 71.2301 4.38534C71.568 3.31865 71.6825 2.29874 71.2815 1.56411C71.0846 1.19517 70.7125 0.919664 70.2549 0.860528C70.1425 0.847904 70.0246 0.843745 69.9272 0.848022Z" fill="white"/>
<path d="M66.5228 19.2946C66.5228 18.6246 66.7428 18.0946 67.1828 17.7046C67.6228 17.3146 68.2728 17.1196 69.1328 17.1196C69.4328 17.1196 69.7378 17.1496 70.0478 17.2096C70.3678 17.2696 70.6278 17.3496 70.8278 17.4496V15.4546C70.8278 15.0546 70.7278 14.7696 70.5278 14.5996C70.3278 14.4196 70.0578 14.3296 69.7178 14.3296C69.3878 14.3296 69.1178 14.4096 68.9078 14.5696C69.0978 14.6296 69.2378 14.7346 69.3278 14.8846C69.4278 15.0246 69.4778 15.1846 69.4778 15.3646C69.4778 15.6846 69.3628 15.9446 69.1328 16.1446C68.9028 16.3446 68.6128 16.4446 68.2628 16.4446C67.8828 16.4446 67.5778 16.3346 67.3478 16.1146C67.1178 15.8946 67.0028 15.6096 67.0028 15.2596C67.0028 14.9096 67.1228 14.5796 67.3628 14.2696C67.6028 13.9596 67.9678 13.7096 68.4578 13.5196C68.9578 13.3296 69.5728 13.2346 70.3028 13.2346C71.2928 13.2346 72.0428 13.4396 72.5528 13.8496C73.0628 14.2496 73.3178 14.8396 73.3178 15.6196V19.5946C73.3178 20.0746 73.5478 20.3646 74.0078 20.4646V20.9446C73.8778 21.1246 73.6628 21.2646 73.3628 21.3646C73.0628 21.4646 72.7578 21.5146 72.4478 21.5146C71.7678 21.5146 71.2878 21.2796 71.0078 20.8096C70.7778 21.0096 70.4978 21.1796 70.1678 21.3196C69.8378 21.4496 69.4628 21.5146 69.0428 21.5146C68.2928 21.5146 67.6828 21.3096 67.2128 20.8996C66.7528 20.4796 66.5228 19.9446 66.5228 19.2946ZM70.8278 18.6046C70.7178 18.5346 70.5828 18.4746 70.4228 18.4246C70.2728 18.3746 70.1278 18.3496 69.9878 18.3496C69.7078 18.3496 69.4778 18.4396 69.2978 18.6196C69.1178 18.7896 69.0278 19.0396 69.0278 19.3696C69.0278 19.6396 69.1178 19.8646 69.2978 20.0446C69.4778 20.2146 69.7178 20.2996 70.0178 20.2996C70.1678 20.2996 70.3128 20.2796 70.4528 20.2396C70.6028 20.1896 70.7278 20.1296 70.8278 20.0596V18.6046ZM80.2194 13.2646C80.6694 13.2646 80.9994 13.3796 81.2094 13.6096C81.4194 13.8396 81.5244 14.1546 81.5244 14.5546C81.5244 14.9846 81.4094 15.3346 81.1794 15.6046C80.9594 15.8746 80.6594 16.0096 80.2794 16.0096C79.9494 16.0096 79.6794 15.9146 79.4694 15.7246C79.2694 15.5346 79.1694 15.3096 79.1694 15.0496C79.1694 14.8896 79.1844 14.7646 79.2144 14.6746C78.8544 14.7646 78.5494 14.9196 78.2994 15.1396V19.6396C78.2994 19.8896 78.3344 20.0796 78.4044 20.2096C78.4744 20.3396 78.6094 20.4396 78.8094 20.5096C79.0194 20.5696 79.3294 20.5996 79.7394 20.5996C79.7394 20.7796 79.7194 20.9346 79.6794 21.0646C79.6394 21.1846 79.5644 21.2996 79.4544 21.4096H75.4494C75.2194 21.1796 75.1044 20.9096 75.1044 20.5996C75.3944 20.5996 75.5994 20.5396 75.7194 20.4196C75.8494 20.2896 75.9144 20.0746 75.9144 19.7746V15.4396C75.9144 15.1696 75.8394 14.9796 75.6894 14.8696C75.5494 14.7596 75.2944 14.7046 74.9244 14.7046V14.0296C75.2544 13.8396 75.6894 13.6746 76.2294 13.5346C76.7794 13.3846 77.2044 13.3096 77.5044 13.3096C77.7444 13.3096 77.9144 13.3946 78.0144 13.5646C78.1144 13.7346 78.1644 14.0746 78.1644 14.5846C78.3444 14.2446 78.6294 13.9396 79.0194 13.6696C79.4094 13.3996 79.8094 13.2646 80.2194 13.2646Z" fill="white"/>
</svg>
